<svg xmlns="http://www.w3.org/2000/svg" xmlns:xlink="http://www.w3.org/1999/xlink" width="2800.754" height="2963.201" viewBox="0 0 2800.754 2963.201">
  <defs>
    <clipPath id="clip-path">
      <path id="Path_55" data-name="Path 55" d="M1938.822,1768.015c14.074,2.815,27.543,5.8,39.844,8.444,38.14,8.022,120.092,40.814,153.49,5.63,55.057-58.055-55.156-178.992-80.559-230.671-31.413-63.91-71.172-135.6-70.806-208.969.563-111.578,92.607-252.415,192.222-299.774,137.389-65.233,311.033,8.684,417.995,99.46,154.911,131.492,251.922,330.863,278.17,530.825,28.274,215.514-66.7,424.877-69.863,639.8-4.968,337.774,515.865-35.705,326.134,833.076-41.884,191.8-98.672,400.388-226.083,554.667-52.833,63.98-153.8,149.83-243.281,134.349-126.876-21.969-101.191-202.045-131.6-289.838-35.551-102.641-107.848-188.59-191.293-256.145-106.131-85.935-231.319-166.072-261.437-309.541-19.548-93.127,35.058-180.765,99.559-244.407,35.551-35.072,107.117-71.777,103.387-129.621-3.1-48.006-65.429-89.9-97.194-118.544-97.659-88.074-191.743-181.75-276.088-282.73-75.7-90.635-205.3-229.742-179.1-360.545C1743.406,1738.15,1853.182,1750.774,1938.822,1768.015Z" transform="translate(-1718.87 -1017.854)" fill="#bfc8d6"/>
    </clipPath>
    <clipPath id="clip-path-2">
      <path id="Path_62" data-name="Path 62" d="M2038.142,1799.468c62.488-156.122,217.47-262.478,384.02-286.7,101.332-14.749,222.677-10.119,321.279,18.493,138.67,40.237,245.2,145.37,324.361,262.323,93.014,137.432,85.851,294.144,106.961,453.053,4.138,31.145,35.1,203.536,83.332,109.776,67.259-130.662,180.962-93.746,180.99-93.732,88.961,28.894,151.562,103.485,175.924,191.334,65.092,234.668,5.024,523.549-40.012,756.992-21.2,109.776-47.162,218.511-75.732,326.514a70.538,70.538,0,0,1-126.5,21.716c-16.171-23.756-33.426-45.824-49.512-65.331-154.6-187.746-423.089-242.662-650.833-278.044-132.984-20.646-242.141-41.321-350.637-125.933-45.036-35.185-93.62-77.589-110.03-134.561-14.848-51.525-9.458-136.376,26.164-178.837,44.361-52.876,128.48-39.941,183.453-76.435,88.792-58.956-118.6-129.747-159.908-148.24-65.852-29.555-105.1-88.961-151.041-141.823-35.086-40.392-67.555-83.712-90.847-132.013C1948.154,2130.542,1979.3,1946.455,2038.142,1799.468Z" transform="translate(-1978.292 -1504.587)" fill="#d8dee8"/>
    </clipPath>
    <linearGradient id="linear-gradient" x1="0.517" y1="1.427" x2="0.485" y2="-0.473" gradientUnits="objectBoundingBox">
      <stop offset="0" stop-color="#ffc444"/>
      <stop offset="1" stop-color="#f36f56"/>
    </linearGradient>
    <linearGradient id="linear-gradient-2" x1="0.514" y1="1.444" x2="0.483" y2="-0.414" xlink:href="#linear-gradient"/>
    <linearGradient id="linear-gradient-3" x1="0.707" y1="0.214" x2="0.037" y2="1.337" gradientUnits="objectBoundingBox">
      <stop offset="0" stop-color="#aa80f9"/>
      <stop offset="1" stop-color="#6165d7"/>
    </linearGradient>
    <linearGradient id="linear-gradient-4" x1="1" y1="0.5" x2="0" y2="0.5" xlink:href="#linear-gradient"/>
    <linearGradient id="linear-gradient-5" x1="1" y1="0.5" x2="0" y2="0.5" gradientUnits="objectBoundingBox">
      <stop offset="0" stop-color="#444b8c"/>
      <stop offset="1" stop-color="#26264f"/>
    </linearGradient>
    <linearGradient id="linear-gradient-6" x1="0.36" y1="-0.006" x2="0.471" y2="0.402" xlink:href="#linear-gradient-5"/>
    <linearGradient id="linear-gradient-7" x1="0.336" y1="0.259" x2="1.162" y2="0.958" gradientUnits="objectBoundingBox">
      <stop offset="0" stop-color="#311944"/>
      <stop offset="1" stop-color="#893976"/>
    </linearGradient>
    <linearGradient id="linear-gradient-8" x1="0.294" y1="0.268" x2="1.301" y2="1.006" xlink:href="#linear-gradient-7"/>
    <linearGradient id="linear-gradient-9" x1="4.859" y1="-1.876" x2="4.122" y2="-1.876" xlink:href="#linear-gradient-5"/>
    <linearGradient id="linear-gradient-10" x1="0.96" y1="-0.154" x2="1.373" y2="0.486" xlink:href="#linear-gradient-7"/>
    <linearGradient id="linear-gradient-11" x1="0.856" y1="-0.152" x2="0.415" y2="0.846" xlink:href="#linear-gradient-3"/>
    <linearGradient id="linear-gradient-12" x1="-4.058" y1="-14.619" x2="-4.107" y2="-16.385" xlink:href="#linear-gradient"/>
    <linearGradient id="linear-gradient-13" x1="36.475" y1="-14.508" x2="37.118" y2="-16.083" gradientUnits="objectBoundingBox">
      <stop offset="0" stop-color="#311944"/>
      <stop offset="1" stop-color="#6b3976"/>
    </linearGradient>
    <linearGradient id="linear-gradient-14" x1="-10.057" y1="-20.735" x2="-10.024" y2="-17.583" xlink:href="#linear-gradient"/>
    <linearGradient id="linear-gradient-15" x1="1.003" y1="-0.608" x2="0.509" y2="0.799" xlink:href="#linear-gradient-3"/>
    <linearGradient id="linear-gradient-16" x1="0.587" y1="-0.012" x2="0.415" y2="1.252" xlink:href="#linear-gradient-5"/>
    <linearGradient id="linear-gradient-17" x1="0.596" y1="-0.651" x2="0.422" y2="1.61" xlink:href="#linear-gradient-5"/>
    <linearGradient id="linear-gradient-18" x1="0.795" y1="-0.106" x2="0.378" y2="0.754" xlink:href="#linear-gradient-5"/>
    <linearGradient id="linear-gradient-19" x1="0.778" y1="-0.109" x2="0.384" y2="0.755" xlink:href="#linear-gradient-5"/>
    <linearGradient id="linear-gradient-20" x1="1.982" y1="0.657" x2="2.12" y2="3.072" xlink:href="#linear-gradient-5"/>
    <linearGradient id="linear-gradient-21" x1="0.515" y1="0.834" x2="0.607" y2="2.759" xlink:href="#linear-gradient"/>
    <linearGradient id="linear-gradient-22" x1="-1.485" y1="1.077" x2="-2.381" y2="2.115" xlink:href="#linear-gradient-3"/>
    <linearGradient id="linear-gradient-23" x1="0.44" y1="-0.156" x2="0.535" y2="0.877" xlink:href="#linear-gradient-7"/>
    <linearGradient id="linear-gradient-24" x1="0.48" y1="0.415" x2="0.794" y2="1.758" gradientUnits="objectBoundingBox">
      <stop offset="0" stop-color="#ff9085"/>
      <stop offset="1" stop-color="#fb6fbb"/>
    </linearGradient>
    <linearGradient id="linear-gradient-25" x1="4.725" y1="0.431" x2="3.482" y2="-0.694" xlink:href="#linear-gradient-24"/>
    <linearGradient id="linear-gradient-26" x1="0.44" y1="-0.156" x2="0.535" y2="0.877" xlink:href="#linear-gradient-24"/>
    <linearGradient id="linear-gradient-27" x1="0.438" y1="-0.174" x2="0.541" y2="0.947" xlink:href="#linear-gradient-24"/>
  </defs>
  <g id="Wavy_Ppl-06_Single-10_Converted_" data-name="Wavy_Ppl-06_Single-10 [Converted]" transform="translate(71 96.902)">
    <g id="Illustration" transform="translate(-71 15)">
      <path id="Path_48" data-name="Path 48" d="M495.81,1603.55c55.21-361.38,99.54-611.14,298.91-748C1131,624.72,1506.59,999.46,1983,748c234.54-123.81,243.34-267.35,442-286.4,351.39-33.71,639.2,385.7,664.14,421.67,151.55,218.54,202.18,485,140.74,739.07-39.9,165-66.87,335.79-59.47,505.35,12.88,295.09,5.47,570.55-280.92,746.54-255.7,157.14-577.52,295.73-884.54,320-208.64,16.5-442.63-10.2-643.72-64.52C336.4,2852.87,419.9,2100.44,495.81,1603.55Z" transform="translate(-454.623 -459.674)" fill="#3d4362"/>
      <g id="Group_18" data-name="Group 18" transform="translate(43.571 -111.902)">
        <path id="Path_49" data-name="Path 49" d="M1938.822,1768.015c14.074,2.815,27.543,5.8,39.844,8.444,38.14,8.022,120.092,40.814,153.49,5.63,55.057-58.055-55.156-178.992-80.559-230.671-31.413-63.91-71.172-135.6-70.806-208.969.563-111.578,92.607-252.415,192.222-299.774,137.389-65.233,311.033,8.684,417.995,99.46,154.911,131.492,251.922,330.863,278.17,530.825,28.274,215.514-66.7,424.877-69.863,639.8-4.968,337.774,515.865-35.705,326.134,833.076-41.884,191.8-98.672,400.388-226.083,554.667-52.833,63.98-153.8,149.83-243.281,134.349-126.876-21.969-101.191-202.045-131.6-289.838-35.551-102.641-107.848-188.59-191.293-256.145-106.131-85.935-231.319-166.072-261.437-309.541-19.548-93.127,35.058-180.765,99.559-244.407,35.551-35.072,107.117-71.777,103.387-129.621-3.1-48.006-65.429-89.9-97.194-118.544-97.659-88.074-191.743-181.75-276.088-282.73-75.7-90.635-205.3-229.742-179.1-360.545C1743.406,1738.15,1853.182,1750.774,1938.822,1768.015Z" transform="translate(-1073.978 -1017.854)" fill="#bfc8d6"/>
        <g id="Group_7" data-name="Group 7" transform="translate(644.892)" clip-path="url(#clip-path)">
          <g id="Group_6" data-name="Group 6" transform="translate(237.011 -135.668)" opacity="0.8">
            <path id="Path_50" data-name="Path 50" d="M2340.659,4075.673a6.551,6.551,0,0,0,3.9-.788c235.23-131.648,364.119-358.082,394.069-692.267,26.079-291.33-24.277-616.141-72.973-930.284-38.337-247.363-74.592-481-65.584-664.456,7.206-146.988-19.859-284.025-80.4-407.312-48.428-98.517-118.221-188.59-207.52-267.531C2160.3,978.77,2002.35,922.333,2000.774,921.77a6.53,6.53,0,0,0-4.335,12.315c1.563.535,157.459,56.3,307.416,189.026,138.037,122.161,299.225,336.549,283.195,664.119-9.049,184.79,27.261,419.064,65.711,667.1,95.829,618.125,204.438,1318.724-314.523,1609.139a6.516,6.516,0,0,0,2.477,12.174Z" transform="translate(-1919.317 -921.457)" fill="#fff"/>
            <path id="Path_51" data-name="Path 51" d="M1933.766,1606.5a6.166,6.166,0,0,0,2.026-.084c1.8-.38,44.825-9.627,96.2-58.59,46.838-44.642,109.861-132.534,144.088-297.635a6.53,6.53,0,0,0-12.779-2.646c-33.383,161.1-94.295,246.673-139.5,290.063-48.78,46.838-90.228,55.943-90.636,56.028a6.516,6.516,0,0,0,.605,12.864Z" transform="translate(-1259.235 -790.631)" fill="#fff"/>
            <path id="Path_52" data-name="Path 52" d="M2775.294,1961.413a6.516,6.516,0,0,0,2.083-12.849c-1.1-.239-110.987-24.489-249.615-104.907a1144.126,1144.126,0,0,1-434.531-451.209,6.52,6.52,0,0,0-11.5,6.15,1156.987,1156.987,0,0,0,439.936,456.6c140.345,81.319,251.923,105.878,252.964,106.117a5.83,5.83,0,0,0,.661.1Z" transform="translate(-2080.961 -730.985)" fill="#fff"/>
            <path id="Path_53" data-name="Path 53" d="M1739.393,2721.2a6.472,6.472,0,0,0,2.2-.127c4.7-1.1,116.025-27.895,216.443-126.342,59-57.829,101.613-128.438,126.665-209.842,31.258-101.445,35.185-219.975,11.554-352.3a6.53,6.53,0,0,0-12.849,2.28c52.453,294.144-43.967,461.539-134.1,550.12-97.786,96.11-209.589,123.118-210.7,123.371a6.517,6.517,0,0,0,.76,12.836Z" transform="translate(-920.914 -470.883)" fill="#fff"/>
            <path id="Path_54" data-name="Path 54" d="M2629.006,2464.208a6.516,6.516,0,0,0,2.266-12.807c-5.109-1.267-511.98-128.073-616.563-336.69a6.518,6.518,0,1,0-11.653,5.841c45.163,90.073,164.242,175.347,353.944,253.33,140.64,57.816,269.867,89.848,271.161,90.171A5.919,5.919,0,0,0,2629.006,2464.208Z" transform="translate(-1824.052 -436.804)" fill="#fff"/>
          </g>
        </g>
        <path id="Path_56" data-name="Path 56" d="M2038.142,1799.468c62.488-156.122,217.47-262.478,384.02-286.7,101.332-14.749,222.677-10.119,321.279,18.493,138.67,40.237,245.2,145.37,324.361,262.323,93.014,137.432,85.851,294.144,106.961,453.053,4.138,31.145,35.1,203.536,83.332,109.776,67.259-130.662,180.962-93.746,180.99-93.732,88.961,28.894,151.562,103.485,175.924,191.334,65.092,234.668,5.024,523.549-40.012,756.992-21.2,109.776-47.162,218.511-75.732,326.514a70.538,70.538,0,0,1-126.5,21.716c-16.171-23.756-33.426-45.824-49.512-65.331-154.6-187.746-423.089-242.662-650.833-278.044-132.984-20.646-242.141-41.321-350.637-125.933-45.036-35.185-93.62-77.589-110.03-134.561-14.848-51.525-9.458-136.376,26.164-178.837,44.361-52.876,128.48-39.941,183.453-76.435,88.792-58.956-118.6-129.747-159.908-148.24-65.852-29.555-105.1-88.961-151.041-141.823-35.086-40.392-67.555-83.712-90.847-132.013C1948.154,2130.542,1979.3,1946.455,2038.142,1799.468Z" transform="translate(-1915.668 -819.565)" fill="#d8dee8"/>
        <g id="Group_9" data-name="Group 9" transform="translate(62.624 685.022)" clip-path="url(#clip-path-2)">
          <g id="Group_8" data-name="Group 8" transform="translate(-197.046 19.099)" opacity="0.8">
            <path id="Path_57" data-name="Path 57" d="M3398.067,3649.948a6.312,6.312,0,0,0,2.814-.31,6.53,6.53,0,0,0,4.054-8.289c-1.633-4.757-166.072-481.693-410.761-978.952-143.793-292.188-286.784-534.175-425.031-719.176-173.32-232.022-339.828-374.929-494.922-424.75a6.518,6.518,0,1,0-3.983,12.413c152.435,48.977,316.832,190.293,488.491,420.092,137.741,184.368,280.31,425.707,423.751,717.177,244.351,496.513,408.495,972.675,410.127,977.432a6.516,6.516,0,0,0,5.46,4.364Z" transform="translate(-1665.917 -1518.157)" fill="#fff"/>
            <path id="Path_58" data-name="Path 58" d="M2464.63,2263.066a8.516,8.516,0,0,0,1.041,0,6.516,6.516,0,0,0,6.207-6.826c-.31-6.221-28.823-623.093,77.336-714.954a6.53,6.53,0,1,0-8.543-9.851c-110.9,95.956-83.036,699.768-81.825,725.425A6.53,6.53,0,0,0,2464.63,2263.066Z" transform="translate(-1360.077 -1513.5)" fill="#fff"/>
            <path id="Path_59" data-name="Path 59" d="M2728.7,1758.744a6.5,6.5,0,0,0,3.533-.605c271.837-130.887,791.628,10.626,796.85,12.061a6.522,6.522,0,0,0,3.49-12.568c-1.323-.366-133.449-36.592-297.747-56.042-152-18-363.641-24.8-508.237,44.783a6.53,6.53,0,0,0,2.111,12.371Z" transform="translate(-2722.895 -1448.355)" fill="#fff"/>
            <path id="Path_60" data-name="Path 60" d="M1997.04,2935.582a6.6,6.6,0,0,0,1.492,0,6.53,6.53,0,0,0,5.714-7.248c-36.254-307.557,272.274-716.038,275.384-720.133a6.516,6.516,0,0,0-10.358-7.909c-.788,1.027-79.616,104.851-152.814,245.716-67.751,130.38-144.468,320.139-125.173,483.86A6.529,6.529,0,0,0,1997.04,2935.582Z" transform="translate(-432.594 -1241.307)" fill="#fff"/>
            <path id="Path_61" data-name="Path 61" d="M3654.8,2534.264a6.516,6.516,0,0,0,3.42-12.413c-2.238-1.028-227.209-103.373-503.845-190.082-255.737-80.221-609.245-162.962-841.112-102.162a6.546,6.546,0,0,0,3.308,12.667c228.87-60.011,579.844,22.349,833.892,101.993,275.848,86.47,500.031,188.477,502.27,189.49a6.092,6.092,0,0,0,2.069.507Z" transform="translate(-2264.214 -1236.873)" fill="#fff"/>
          </g>
        </g>
        <path id="Path_69" data-name="Path 69" d="M1852.7,1982.627s169.408,111.62,246.9,68.286,86.667-87.891,19.7-100.417-258.707-27.866-258.707-27.866Z" transform="translate(-259.416 -649.258)" fill="url(#linear-gradient)"/>
        <path id="Path_71" data-name="Path 71" d="M1894.041,1938.695s149.268-58.66,184.734-16.635,60.405,104.836,13.131,78.687-41.828-11.709-85.851-14.341S1904.991,1994.723,1894.041,1938.695Z" transform="translate(-271.374 -655.668)" fill="url(#linear-gradient-2)"/>
        <path id="Path_72" data-name="Path 72" d="M2199.954,1336.647s207.675,56.3,172.658,329.765,42.025,476.641,224.127,476.641c0,73.536-28.021,115.56-28.021,115.56s-368,10.513-471.166-318.675S2048.294,1328.765,2199.954,1336.647Z" transform="translate(-961.814 -888.047)" fill="url(#linear-gradient-3)"/>
        <path id="Path_73" data-name="Path 73" d="M2059.57,2989.277c2.308,1.52,44.432,58.519,63.488,95.773l52.4-28.148s-29.555-10.513-44.389-67.625S2059.57,2989.277,2059.57,2989.277Z" transform="translate(-561.865 -225.059)" fill="url(#linear-gradient-4)"/>
        <path id="Path_74" data-name="Path 74" d="M2047.839,3113.611s-32.848,11.1-46.514,12.1l-1.407.1a22.686,22.686,0,0,1-19.858-9.049c-8.078-10.837-19.7-27.233-19.971-31.821-.338-7.037,18.634-21.42,35.522-27.655s20.843-14.6,52.228-39.689,84.274-54.748,109.058-31.863S2158.741,3065.66,2047.839,3113.611Z" transform="translate(-412.337 -219.504)" fill="url(#linear-gradient-5)"/>
        <path id="Path_75" data-name="Path 75" d="M2138.713,2989.451c-27.219,10.836-35.424,41.462-82.656,72.551-26.74,17.634-59.856,33.777-83.43,44.543-6.362-8.993-12.357-18.3-12.526-21.561-.338-7.037,18.634-21.421,35.522-27.655s20.871-14.637,52.256-39.73,84.275-54.748,109.058-31.863c6.319,5.826,9.514,13.877,8.966,23.419C2160.949,2995.995,2152.575,2983.891,2138.713,2989.451Z" transform="translate(-412.378 -219.504)" fill="url(#linear-gradient-6)"/>
        <path id="Path_76" data-name="Path 76" d="M2441.95,1887.5a3871.744,3871.744,0,0,1,399.825,1526.764l-90.2,37.253c-59.11-37.648-145.749-103.95-209.7-211.531-104.752-176.36-30.808-265.786-115.955-477.893-82.543-205.62-187.183-209.054-277.763-432.645-54.057-133.378-66.415-254.484-68.807-333.439Z" transform="translate(-1256.024 -663.57)" fill="url(#linear-gradient-7)"/>
        <path id="Path_77" data-name="Path 77" d="M2374.022,1922.63c-32.581,84.274-29.978,147.621-17.424,194.037,41.828,154.489,206.886,171.251,246.124,344.022,26.36,115.94-40.406,141.583-5.306,261.985,37.268,127.777,119.234,122.175,164.088,254.062,35.185,103.668-2.322,145.623,13.229,291.1a778.62,778.62,0,0,0,27.359,137.009c-52.735-39.618-114.378-97.461-162.919-179.175-104.752-176.36-30.807-265.785-115.955-477.893-82.543-205.619-187.183-209.054-277.762-432.646-54.058-133.378-66.415-254.484-68.807-333.438Z" transform="translate(-1353.282 -649.258)" opacity="0.3" fill="url(#linear-gradient-8)"/>
        <path id="Path_78" data-name="Path 78" d="M3136.909,2864s-19.83,13.117-22.518,45.642,41.926,154.883,62.727,182.693,59.477,11.189,65.852-15.087-48.555-189.167-48.555-189.167Z" transform="translate(-3114.274 -265.755)" fill="url(#linear-gradient-9)"/>
        <path id="Path_79" data-name="Path 79" d="M3486.431,1849.8a2801.9,2801.9,0,0,0-130.521,366.54c-51.834,186.085-54.1,270.556-124.652,448.62-65.345,164.889-118.221,230.91-140.162,256.609-52.819,62-100.5,95.28-224.028,177.415q-161.85,107.666-343.4,224.338c-22.7,7.952-34.791.127-46.021-19.521-20.9-101.177-4.687-169.59,12.118-211.727,35.846-89.918,91.48-103.063,230.488-258.706,74.141-83.036,111.747-125.708,137.3-185.536,12.287-28.795,31.188-81.361,38.1-265.082,2.815-75.281,3.814-176.43-3.406-296.8Z" transform="translate(-2447.324 -678.928)" fill="url(#linear-gradient-10)"/>
        <path id="Path_80" data-name="Path 80" d="M2287.8,2469.155c31.568,27.163,109.889-80.587,256.032-95.238,77.955-7.825,89.876,19.337,170.716,3.94,88.2-16.8,82.051-50.736,164.665-67.442,81.9-16.607,106.792,12.977,232.219-2,52.735-6.305,79.11-9.458,95.6-24.108a70.572,70.572,0,0,0,20.224-30.682c18.015-52.847-12.765-137.924-20.59-258.818-7.515-116.138,13.863-146.087,30.47-262.9.253-1.9.521-3.786.788-5.728,3.885-28.838,6.629-62.882,9.458-104.541,2-29.555,3.434-64.135,3.434-103.373v-2.477c0-52.791-18.563-103.64-55.437-141.344a196.711,196.711,0,0,0-139.656-59.42,937.674,937.674,0,0,1-103.315-6.4c-63.192-7.459-110.987-3.687-163.046-20.224-84.443-26.839-196.12-24.953-263.182,32.933s-90.326,146.369-76.2,233.922a.424.424,0,0,1,0,.254c10.922,67.442,27.585,90.073,29.049,165.523,2.52,127.073-42.911,146.368-64.29,311.5-17.55,135.954,7.727,165.579-31.99,222.156-28.472,40.6-66.246,60.715-88.666,124.23-3.786,10.654-10.4,29.358-13.455,47.373C2277.672,2443.836,2278.094,2460.795,2287.8,2469.155Z" transform="translate(-1946.088 -914.432)" fill="url(#linear-gradient-11)"/>
        <path id="Path_81" data-name="Path 81" d="M2592.543,1160.59c2.562,24.01,1.21,75.281-33.327,113.337-30.23,33.313-72.973,40.7-90.073,43.826-41.419,7.558-62.628-2.955-65.373,3.842-6.066,15.045,87.92,91.565,203.368,96.5,67.851,2.9,138.206-19.127,139.261-40.927,1.168-24.446-85.851-28.669-103.387-80.9-11.259-33.383,10.978-71.622,34.073-100.938C2660.112,1172.116,2609.516,1183.868,2592.543,1160.59Z" transform="translate(-1616.853 -959.705)" fill="url(#linear-gradient-12)"/>
        <path id="Path_82" data-name="Path 82" d="M2594.629,1180.364c15.045-18.859,16.339-50.765-.479-70.2-14.482-16.748-37.592-18.3-51.44-19.225-40.167-2.7-91.213,14.89-109.368,49.934-10.78,20.787,11.372,62.136,14.834,69.6,3.913,8.444,11.174,11.076,17.831,17.283,9.233,8.627,23.687,22.335,47.247,45.276a153.557,153.557,0,0,1,9.471-25.713,144.573,144.573,0,0,1,19.492-30.526C2563.469,1192.228,2580.344,1198.266,2594.629,1180.364Z" transform="translate(-1514.666 -988.191)" fill="url(#linear-gradient-13)"/>
        <path id="Path_83" data-name="Path 83" d="M2465.346,1234.556s25.966,39.1,78.687,33.623c47.119-4.9,55.2-103.021,25.432-122.443-9.937-6.516-29.992-8.571-46.444-3.645-9.683,2.9-13,6.756-28.936,11.259-14.707,4.124-18.831,2.815-23.292,6.418-5.63,4.546-9.852,15.3-.915,43.629-8.909-8.064-19.7-10.851-27.4-7.164a16.893,16.893,0,0,0-6.376,5.939C2429.388,1213.445,2440.267,1227.265,2465.346,1234.556Z" transform="translate(-1500.55 -968.354)" fill="url(#linear-gradient-14)"/>
        <path id="Path_84" data-name="Path 84" d="M2286.468,2397.971c31.568,27.163,109.889-80.587,256.032-95.238,77.955-7.825,89.876,19.337,170.717,3.941,88.2-16.8,82.051-50.737,164.665-67.442,81.9-16.607,106.793,12.976,232.219-2,52.735-6.305,79.11-9.458,95.6-24.109a70.569,70.569,0,0,0,20.224-30.681c.155-53.692-21.533-128.073-28.148-224.83-8.669-127.538,18.395-153.589,36.451-296.678.535,0,1-.169,1.534-.211.253-1.9.521-3.786.788-5.728,3.941-28.838,7.614-62.882,10.443-104.541,2-29.682,3.729-64.5,4.419-104.006l-1.055.633a237.258,237.258,0,0,0-56.155,45.332c-63.4,69.807-60.673,150.858-59.673,167.93,58.843,219,28.415,302.786-17.016,335.887-79.419,57.7-198.878-43.629-318.323,24.362-104.231,59.308-94.816,183.073-184.706,197.667-64.655,10.57-89.707-50.159-156.319-37.873-74.437,13.722-84.317,97.11-159.162,159.795a228.632,228.632,0,0,1-19.816,14.919C2276.334,2372.653,2276.757,2389.612,2286.468,2397.971Z" transform="translate(-1944.75 -843.249)" opacity="0.3" fill="url(#linear-gradient-15)"/>
        <path id="Path_96" data-name="Path 96" d="M2452.661,1178.65c2.927-4.067,6.39-6.361,10.273-6.8,7.558-.8,14.849,5.32,14.919,5.39l4.081-4.645c-.38-.338-9.359-8.078-19.7-6.882-5.629.633-10.6,3.786-14.581,9.331Z" transform="translate(-1414.524 -957.668)" fill="url(#linear-gradient-16)"/>
        <path id="Path_98" data-name="Path 98" d="M2492.661,1178.086l49.878-5.306.647,6.15-48.949,5.193a3.489,3.489,0,0,1-2.6-.774,3.619,3.619,0,0,1-1.309-2.378,2.618,2.618,0,0,1,2.336-2.885Z" transform="translate(-1535.816 -954.739)" fill="url(#linear-gradient-17)"/>
        <path id="Path_99" data-name="Path 99" d="M2428.244,1178.1c0,12.484,7.487,22.518,16.635,22.518a12.666,12.666,0,0,0,6.178-1.619,17.855,17.855,0,0,0,6.362-6.178,27.428,27.428,0,0,0,4.081-14.763c0-12.554-7.417-22.617-16.621-22.617a12.67,12.67,0,0,0-4.025.676,15.484,15.484,0,0,0-6.924,4.94,26.74,26.74,0,0,0-5.685,17.044Z" transform="translate(-1366.774 -961.803)" fill="url(#linear-gradient-18)"/>
        <path id="Path_100" data-name="Path 100" d="M2431.14,1160.874l17.128,38a17.86,17.86,0,0,0,6.362-6.178l-16.565-36.7A15.479,15.479,0,0,0,2431.14,1160.874Z" transform="translate(-1363.984 -961.579)" fill="#fff"/>
        <path id="Path_101" data-name="Path 101" d="M2467.76,1178.1c0,12.484,7.909,22.518,17.733,22.518a14.245,14.245,0,0,0,7.107-1.928,18.3,18.3,0,0,0,6.361-6.052,26.38,26.38,0,0,0,4.222-14.581c0-12.554-7.909-22.617-17.677-22.617a13.363,13.363,0,0,0-3.153.366,15.732,15.732,0,0,0-7.29,3.955,24.826,24.826,0,0,0-7.3,18.338Z" transform="translate(-1464.063 -961.803)" fill="url(#linear-gradient-19)"/>
        <path id="Path_102" data-name="Path 102" d="M2470.75,1159.685l17.55,38.928a18.291,18.291,0,0,0,6.361-6.052l-16.621-36.832a15.734,15.734,0,0,0-7.29,3.955Z" transform="translate(-1459.763 -961.685)" fill="#fff"/>
        <path id="Path_106" data-name="Path 106" d="M2962.893,3586.534a14.553,14.553,0,0,0,20.52,1.731l1.83-1.534a14.553,14.553,0,0,0,1.731-20.52L1647.139,1978.746a14.553,14.553,0,0,0-20.52-1.731l-1.829,1.534a14.566,14.566,0,0,0-1.745,20.52Z" transform="translate(-757.638 -628.504)" fill="url(#linear-gradient-20)"/>
        <path id="Path_107" data-name="Path 107" d="M2598.8,1942.936s146.115,42.419,127.383,72.635-15.946,74,1.661,82.754-10.415,49.034-52.439,8.754-122.57-117.306-127.819-124.315S2525.128,1916.674,2598.8,1942.936Z" transform="translate(-1798.659 -643.711)" fill="url(#linear-gradient-21)"/>
        <path id="Path_108" data-name="Path 108" d="M2903.644,1290.872s180.526,117.081,63.488,366.766-105.85,466.648,67.555,522.38c-22.518,70-62.024,101.445-62.024,101.445s-353.578-102.613-351.059-447.55S2761.708,1236.884,2903.644,1290.872Z" transform="translate(-2212.078 -909.602)" fill="url(#linear-gradient-22)"/>
      </g>
      <g id="Group_21" data-name="Group 21" transform="translate(-178 -111.902)">
        <path id="Path_63" data-name="Path 63" d="M1085.91,687.15c313.65,0,567.9,254.27,567.9,567.92S1399.56,1823,1085.91,1823,518,1568.74,518,1255.09,772.26,687.15,1085.91,687.15Zm0,1038.48c259.88,0,470.56-210.68,470.56-470.56s-210.66-470.56-470.56-470.56S615.35,995.19,615.35,1255.07,826.03,1725.63,1085.91,1725.63Z" transform="translate(1261.567 -675.87)" fill="url(#linear-gradient-23)"/>
        <ellipse id="Ellipse_1" data-name="Ellipse 1" cx="495.91" cy="495.91" rx="495.91" ry="495.91" transform="translate(1812.137 72.29)" fill="url(#linear-gradient-24)"/>
        <path id="Path_64" data-name="Path 64" d="M695.08,1227.53c-10.82,10.4-11.64,25.75-2,37,126.43,147.46,266.82,237.67,453.35,233.93l3.43-.08c177.41-4.62,301.32-93.38,408.77-228.69a25.56,25.56,0,0,0-1.31-33.51c-112.74-123.86-238.31-218.84-412.28-224.38-3.36-.1-6.73-.18-10.13-.22C957.26,1009.49,836.16,1091.79,695.08,1227.53Z" transform="translate(1182.747 -675.87)" fill="#fff"/>
        <path id="Path_65" data-name="Path 65" d="M1109.52,1156.66c-58.15-2.42-106.19,39.18-106.07,93s48.35,97.54,106.49,97.76c56.84.21,101.9-41.44,101.79-93.05S1166.37,1159,1109.52,1156.66Z" transform="translate(1218.197 -675.87)" fill="#321840"/>
        <path id="Path_66" data-name="Path 66" d="M1121.43,1065.58c-115-6.85-211.9,74.35-211.66,181.65s97.52,192.86,212.52,191.21c109.94-1.57,195.44-83,195.23-182S1231.41,1072.13,1121.43,1065.58Zm.62,281.8c-58.14-.22-106.37-44-106.49-97.76s47.92-95.38,106.07-93c56.85,2.36,102.1,46.07,102.21,97.67s-44.95,93.3-101.79,93.09Z" transform="translate(1206.087 -675.87)" fill="#783267"/>
        <rect id="Rectangle_3" data-name="Rectangle 3" width="86.47" height="1042.351" transform="translate(2668.346 947.516) rotate(141.28)" fill="url(#linear-gradient-25)"/>
        <path id="Path_67" data-name="Path 67" d="M1124.9,675.87c313.65,0,567.93,254.27,567.93,567.92s-254.27,567.91-567.92,567.91S557,1557.44,557,1243.79,811.25,675.87,1124.9,675.87Zm0,1038.48c259.89,0,470.56-210.68,470.56-470.56S1384.83,773.23,1124.9,773.23,654.34,983.91,654.34,1243.79,865.02,1714.35,1124.9,1714.35Z" transform="translate(1183.547 -675.87)" fill="url(#linear-gradient-26)"/>
        <path id="Path_68" data-name="Path 68" d="M1124.9,675.87c313.65,0,567.93,254.27,567.93,567.92s-254.27,567.91-567.92,567.91S557,1557.44,557,1243.79,811.25,675.87,1124.9,675.87Zm470.56,567.92c0-259.88-210.67-470.56-470.56-470.56a468.339,468.339,0,0,0-259.34,77.89l586.13,731.22C1540.32,1496.76,1595.46,1376.72,1595.46,1243.79ZM1124.9,1714.35a468.249,468.249,0,0,0,259.34-77.9L798.12,905.24c-88.64,85.58-143.78,205.62-143.78,338.55,0,259.88,210.68,470.56,470.56,470.56Z" transform="translate(1183.547 -675.87)" opacity="0.3" fill="url(#linear-gradient-27)"/>
      </g>
    </g>
  </g>
</svg>
