<svg xmlns="http://www.w3.org/2000/svg" xmlns:xlink="http://www.w3.org/1999/xlink" width="3049.729" height="2684.535" viewBox="0 0 3049.729 2684.535">
  <defs>
    <clipPath id="clip-path">
      <path id="Path_177" data-name="Path 177" d="M3761.064,3533.238,2024.65,3625.666l-259.16-958.335,741.812-1027.4L2374.566,1300.76,3204.3,1484.283l89.216,464.7,515.6,278.111,602.539,553.349-2.141,280.552Z" transform="translate(-1765.49 -1300.76)" fill="none"/>
    </clipPath>
    <linearGradient id="linear-gradient" x1="13.498" y1="-2.957" x2="14.659" y2="1.637" gradientUnits="objectBoundingBox">
      <stop offset="0" stop-color="#ff9085"/>
      <stop offset="1" stop-color="#fb6fbb"/>
    </linearGradient>
    <linearGradient id="linear-gradient-2" x1="1" y1="0.5" x2="0" y2="0.5" gradientUnits="objectBoundingBox">
      <stop offset="0" stop-color="#ffc444"/>
      <stop offset="1" stop-color="#f36f56"/>
    </linearGradient>
    <linearGradient id="linear-gradient-3" x1="1" y1="0.5" x2="0" y2="0.5" gradientUnits="objectBoundingBox">
      <stop offset="0" stop-color="#6165d7"/>
      <stop offset="1" stop-color="#aa80f9"/>
    </linearGradient>
    <linearGradient id="linear-gradient-5" x1="0.445" y1="0.592" x2="0.661" y2="0.043" xlink:href="#linear-gradient-3"/>
    <linearGradient id="linear-gradient-6" x1="1" y1="0.5" x2="0" y2="0.5" xlink:href="#linear-gradient-2"/>
    <linearGradient id="linear-gradient-8" x1="1.174" y1="1.054" x2="-0.403" y2="0.109" gradientUnits="objectBoundingBox">
      <stop offset="0" stop-color="#6165d7"/>
      <stop offset="0.24" stop-color="#6e6add"/>
      <stop offset="0.69" stop-color="#8f76ed"/>
      <stop offset="1" stop-color="#aa80f9"/>
    </linearGradient>
    <linearGradient id="linear-gradient-9" x1="1" y1="0.5" x2="0" y2="0.5" xlink:href="#linear-gradient-2"/>
    <linearGradient id="linear-gradient-10" x1="-6.851" y1="-2.027" x2="-6.12" y2="-3.568" gradientUnits="objectBoundingBox">
      <stop offset="0" stop-color="#311944"/>
      <stop offset="1" stop-color="#6b3976"/>
    </linearGradient>
    <linearGradient id="linear-gradient-11" x1="32.162" y1="-6.133" x2="32.2" y2="-2.987" xlink:href="#linear-gradient-2"/>
    <linearGradient id="linear-gradient-12" x1="-6.928" y1="-4.628" x2="-6.188" y2="-7.498" xlink:href="#linear-gradient-10"/>
    <linearGradient id="linear-gradient-13" x1="-39.563" y1="-37.582" x2="-39.786" y2="-34.607" xlink:href="#linear-gradient-2"/>
    <linearGradient id="linear-gradient-14" x1="-6.026" y1="-0.185" x2="-4.852" y2="-0.185" xlink:href="#linear-gradient"/>
    <linearGradient id="linear-gradient-15" y1="0.5" x2="1" y2="0.5" gradientUnits="objectBoundingBox">
      <stop offset="0" stop-color="#aa80f9"/>
      <stop offset="1" stop-color="#6165d7"/>
    </linearGradient>
    <linearGradient id="linear-gradient-16" x1="-16.583" y1="-4.197" x2="-17.427" y2="-1.994" gradientUnits="objectBoundingBox">
      <stop offset="0" stop-color="#e38ddd"/>
      <stop offset="1" stop-color="#9571f6"/>
    </linearGradient>
    <linearGradient id="linear-gradient-17" x1="-2.901" y1="0.169" x2="-3.767" y2="3.017" xlink:href="#linear-gradient"/>
    <linearGradient id="linear-gradient-18" x1="-22.529" y1="-3.033" x2="-23.421" y2="-0.406" xlink:href="#linear-gradient-15"/>
    <linearGradient id="linear-gradient-19" x1="31.776" y1="-20.735" x2="30.943" y2="-17.847" xlink:href="#linear-gradient-15"/>
    <linearGradient id="linear-gradient-20" x1="0" y1="0.5" x2="1" y2="0.5" xlink:href="#linear-gradient-15"/>
    <linearGradient id="linear-gradient-21" x1="-22.667" y1="-4.594" x2="-23.559" y2="-1.967" xlink:href="#linear-gradient-16"/>
  </defs>
  <g id="Wavy_Ppl-12_Single-05_Converted_" data-name="Wavy_Ppl-12_Single-05 [Converted]" transform="translate(-338.997 -437.995)">
    <g id="Illustration" transform="translate(-116 -72)">
      <path id="Path_109" data-name="Path 109" d="M1898.57,510.61c-716.79-20.87-1337.68,492-1431.49,1165C364.52,2411.49,929,3073.56,1623.6,3179.6c864,131.9,1701.93-631.14,1626.69-1458.93C3193.6,1097,2627.2,531.83,1898.57,510.61Z" fill="#3d4362"/>
      <g id="Group_19" data-name="Group 19" transform="translate(494.187 597.133)">
        <path id="Path_154" data-name="Path 154" d="M1897.44,3534.336c0,65.738,53.136,115.812,118.235,111.887l2266.81-136.567c49.135-2.968,88.747-51.238,88.747-107.83V1736.484c0-56.591-39.612-104.918-88.747-107.961l-2266.81-140.136c-65.1-4.038-118.235,45.961-118.235,111.7Z" transform="translate(-1897.44 -1136.179)" fill="#d8dee8"/>
        <path id="Path_155" data-name="Path 155" d="M1932.49,3440.118c0,61.682,49.642,108.938,110.516,105.426l2137.663-121.2c46.674-2.648,84.314-48.214,84.314-101.782V1752.875c0-53.549-37.564-99.152-84.314-101.857L2043.006,1527.186c-60.874-3.512-110.516,43.613-110.516,105.294Z" transform="translate(-1857.023 -1102.065)" fill="#fff" opacity="0.4"/>
        <path id="Path_156" data-name="Path 156" d="M1897.44,1605.115v97.068L4371.232,1824.4v-83.563c0-56.592-42.129-109.332-91.283-112.375L2012.313,1488.269C1947.251,1484.193,1897.44,1539.395,1897.44,1605.115Z" transform="translate(-1897.44 -1136.268)" fill="#abc"/>
        <path id="Path_157" data-name="Path 157" d="M2997.83,1571.844c0,22.145,15.589,40.946,34.785,41.96s34.635-16.059,34.635-38.128-15.5-40.833-34.635-41.941S2997.83,1549.605,2997.83,1571.844Z" transform="translate(-2660.254 -1096.198)" fill="#fff"/>
        <path id="Path_158" data-name="Path 158" d="M3054.37,1568.767c0,22.313,15.815,41.321,35.273,42.26s35.1-16.153,35.1-38.372-15.7-41.134-35.1-42.261S3054.37,1546.435,3054.37,1568.767Z" transform="translate(-2823.947 -1099.132)" fill="#fff"/>
        <path id="Path_159" data-name="Path 159" d="M3111.68,1565.676c0,22.539,16.021,41.528,35.687,42.58s35.687-16.265,35.687-38.635-15.927-41.321-35.687-42.561S3111.68,1543.212,3111.68,1565.676Z" transform="translate(-2989.895 -1102.069)" fill="#fff"/>
        <path id="Path_160" data-name="Path 160" d="M1963.45,3229.307c0,41.49,31.536,73.552,72.425,71.5L4102.652,3197.19c31.686-1.6,55.614-32.362,55.614-68.668V1827.069c0-36.306-24.717-66.828-56.347-68.18l-2066.346-88.277c-40.87-1.747-72.068,30.465-72.068,71.956Z" transform="translate(-1808.458 -976.001)" fill="#fff"/>
        <g id="Group_13" data-name="Group 13" transform="translate(75.467)" clip-path="url(#clip-path)">
          <path id="Path_161" data-name="Path 161" d="M2718.546,1672.506l-143.272-243.89a19.985,19.985,0,0,1,23.327-29.169l296.763,95.171S2806.034,1514.283,2718.546,1672.506Z" transform="translate(-1764.982 -1214.929)" fill="url(#linear-gradient)"/>
          <path id="Path_162" data-name="Path 162" d="M1800.543,2253.78s61.512-66.471,101.162-91.245,57.794-47.069,58.62-31.366-12.377,33.808-12.377,33.808-7.513,20.229,45.209,9.091,87.32-4.339,95.978-27.253,29.113,78.041-65.025,94.757-156.063,37.772-156.063,37.772S1762.772,2318.016,1800.543,2253.78Z" transform="translate(498.498 -576.06)" fill="url(#linear-gradient-2)"/>
          <path id="Path_163" data-name="Path 163" d="M1906.73,2410.556c.45,4.376,3.08,26.3,9.955,59.221,24.887,118.517,105.613,379.085,343.041,470.688,199.9,77.008,387.8-13.148,409.889-24.061,158.411-79,245.035-213.838,274.524-264.362-.413-1.559-.864-3.212-1.446-4.9-11.138-33.358-54.845-97.95-62.376-127.889-30.465,34.71-116.883,73.251-207.433,83-134.764,14.557-209.123-57.906-253.092-117.935-124.546-170.15-29.488-261.47-139.478-466.931C2210.516,1887.128,2070.323,1709,1986.066,1746,1864.995,1799.189,1896.7,2280.826,1906.73,2410.556Z" transform="translate(-542.075 -914.086)" fill="url(#linear-gradient-3)"/>
          <path id="Path_164" data-name="Path 164" d="M1897.2,2303.91C1922.084,2422.428,2002.81,2683,2240.238,2774.6c199.9,77.008,387.8-13.147,409.889-24.06,158.411-79,245.035-213.838,274.524-264.362-.413-1.559-.864-3.212-1.446-4.9-78.886-14.218-177.437,75.468-278.58,145.113-133.205,91.733-323.208,19.665-334.665-196.934s-313.967-499.612-313.967-499.612C1909.518,2001.871,1888.707,2147.584,1897.2,2303.91Z" transform="translate(-522.588 -748.276)" opacity="0.3" fill="url(#linear-gradient-3)"/>
          <path id="Path_165" data-name="Path 165" d="M2497.4,2863.333c11.664,267.442-131.89,400.985-50.449,484.7,91.207,93.912,268.588-75,562.8,17.242,66.3,20.773,139.479,55.089,248.041,47.5,89.836-6.236,167.539-38.654,198.267-51.765,41.322-17.562,58.507-36.419,97.556-74.36,74.153-72.068,84.84-184.5,84.709-330.27,0-36.306-.713-74.566-1.315-114.8-4.79-334.327,140.136-355.889,103.529-636.724-15.025-114.573-40.288-308.783-188.105-416.294-76.256-55.5-187.448-61.982-406.6-72.462-274.392-13.3-411.579-20.191-512.421,23.121-151.612,65.062-341.089,224.393-370.5,434.249-22.727,162.224,64.348,253.751,138.99,380.006C2449.163,2633.7,2491.5,2727.987,2497.4,2863.333Z" transform="translate(-2027.646 -944.879)" fill="url(#linear-gradient-5)"/>
          <path id="Path_166" data-name="Path 166" d="M2750.6,1529.74s-17.092,116.583-62.3,200.615c-40.832,75.956-218.664,108.356-255.44,122.518s58.619,76.031,158.673,96.391,391.031,26.5,447.021-6.555-38.241-39.65-107.717-73.42-96.955-179.071-77.76-241.823S2750.6,1529.74,2750.6,1529.74Z" transform="translate(-1647.75 -1099.66)" fill="url(#linear-gradient-6)"/>
          <path id="Path_167" data-name="Path 167" d="M2361.952,3134.333c91.207,93.912,268.588-75,562.8,17.242,66.3,20.773,139.478,55.089,248.041,47.5,89.836-6.236,167.539-38.654,198.267-51.764,41.321-17.562,58.507-36.419,97.556-74.36,74.153-72.068,84.84-184.5,84.708-330.27-65.062-57.268-154.616-93.912-237.766-98.42-236.9-12.9-255.441-148.38-318.738-433.385S2487.945,1949.8,2487.945,1949.8s-75.881,172.8-171.146,389.961c47.369,80.257,89.705,174.545,95.6,309.91C2424.122,2917.077,2280.512,3050.62,2361.952,3134.333Z" transform="translate(-1942.653 -731.18)" opacity="0.3" fill="url(#linear-gradient-3)"/>
          <path id="Path_168" data-name="Path 168" d="M3716.85,2364.534l84.239,132.923c-50.957,88.39-188.124,298.3-452.13,414.208-232.489,102.083-675.114,181.476-931.776-104.054-242.086-269.3-131.026-654.266-121.785-684.544,40.927-133.881,146.84-338.083,250.144-328.8,88.935,8.058,142.577,154.335,270.673,531.693,45.454,133.9,84.784,143.929,94.156,152.325C3095.717,2643.791,3505.379,2469.509,3716.85,2364.534Z" transform="translate(-2087.496 -867.613)" fill="url(#linear-gradient-8)"/>
          <path id="Path_169" data-name="Path 169" d="M2177.331,2196.717s57.512-88.578,96.091-128.265,86.531-42.918,120.771-38.654-39.105,90.155-71.167,103.453-102.4,121.334-102.4,121.334Z" transform="translate(-530.471 -661.743)" fill="url(#linear-gradient-9)"/>
          <path id="Path_170" data-name="Path 170" d="M2831.256,1578.671c11.72-47.839-12.19-112.9-58.714-141.018-40.044-24.192-83.206-12.171-109.07-4.978-75.13,20.867-153.039,89.686-157.077,172.122-2.4,48.834,71.843,117.615,84.239,130.35,14.05,14.406,29.376,15.026,46.581,23.121,23.835,11.27,61.324,29.432,122.931,60.1a350.343,350.343,0,0,1-4.02-57.925c.15-8.658,1.033-42.6,10.161-74.228C2784.563,1622.923,2820.155,1624.012,2831.256,1578.671Z" transform="translate(-1579.54 -1193.181)" fill="url(#linear-gradient-10)"/>
          <path id="Path_171" data-name="Path 171" d="M2555.862,1741.937s79.3,61.7,170.337,16.134c81.366-40.7,15.158-243.477-54.882-263.236-23.384-6.593-61.418,2.423-87.094,23.046-15.176,12.208-18.012,22.126-43.2,41.565-23.252,17.937-31.817,17.956-36.945,28.174-6.386,12.809-5.127,37.171,34.259,88.277-22.783-10.387-44.626-8.94-55.577,3.512a32.625,32.625,0,0,0-6.668,16.134C2473.314,1723.079,2504.361,1743.815,2555.862,1741.937Z" transform="translate(-1451.908 -1132.184)" fill="url(#linear-gradient-11)"/>
          <path id="Path_172" data-name="Path 172" d="M2501.426,1537.817c5.315,1.5-.77,22.539,7.213,45.416,15.514,44.421,78.285,79.356,122.855,65.964,26.295-7.926,26.915-26.878,66.846-48.834a197.1,197.1,0,0,1,62.339-21.675c32.062,42.336,38.654,95.152,17.148,129.955-23.2,37.565-70.641,40.476-90.513,41.716-13.279.845-55.84,3.625-89.761-24.417-35.368-29.207-24.417-60.291-57.869-76.05-16.9-7.945-34.672-7.062-59.653-25.675a129.937,129.937,0,0,1-15.176-13.261C2476.971,1577.674,2493.744,1535.657,2501.426,1537.817Z" transform="translate(-1457.744 -1092.637)" fill="url(#linear-gradient-12)"/>
          <path id="Path_173" data-name="Path 173" d="M2537.926,1576.8s-14.125,17.486-46.111,28.681c-1.559.526-3.042,1.709-2.892,2.611.507,3.437,26.107,9.072,42.411-4.095,11.551-9.391,16.566-26.69,13.467-29.282C2543.5,1573.685,2540.611,1575.037,2537.926,1576.8Z" transform="translate(-1258.299 -1060.474)" fill="url(#linear-gradient-13)"/>
          <path id="Path_174" data-name="Path 174" d="M2340.81,2453.338c0,37.565,27.836,66.828,61.982,65.306s61.55-32.982,61.55-70.3-27.5-66.546-61.55-65.325S2340.81,2415.755,2340.81,2453.338Z" transform="translate(-898.773 -350.309)" fill="#fff"/>
          <path id="Path_175" data-name="Path 175" d="M2473,2459.28c0,38.166,28.7,67.843,63.954,66.265s63.466-33.527,63.466-71.373-28.343-67.617-63.466-66.3S2473,2421.1,2473,2459.28Z" transform="translate(-1283.135 -346.052)" fill="#fff"/>
          <path id="Path_176" data-name="Path 176" d="M2609.34,2465.442c0,38.766,29.619,68.894,65.982,67.26s65.476-34.109,65.476-72.575-29.245-68.612-65.476-67.3S2609.34,2426.656,2609.34,2465.442Z" transform="translate(-1679.592 -341.696)" fill="#fff"/>
        </g>
      </g>
      <g id="Group_20" data-name="Group 20" transform="translate(299.95 342.868)">
        <path id="Path_110" data-name="Path 110" d="M2116.813,1153.645l41.739,29.458s.975-91.613,103.1-119.96,171.873-66.268,153.859-145.475L2308.785,878.41s-17.425,104.393-89.154,122.747C2098.73,1032.031,2116.813,1153.645,2116.813,1153.645Z" transform="translate(30.687 -131.651)" fill="url(#linear-gradient-14)"/>
        <path id="Path_111" data-name="Path 111" d="M2250.967,1213.023c-2.47-46.214,1.745-104.03,38.238-129.228,35.791-24.71,75.5.668,133.272-11.919,37.808-8.248,87.863-33.729,138.348-111.327l86.888,175.261c-89.4,65.86-147.083,69.112-184.483,57.136-44.606-14.321-66.846-52.434-103.249-46.169-33.831,5.812-55.516,45.738-68.908,79.921Z" transform="translate(48.578 -120.727)" fill="url(#linear-gradient-15)"/>
        <path id="Path_112" data-name="Path 112" d="M2458.784,986.23c-11.556-25.549-21.912-59.108-6.8-81.359,14.729-21.821,42.759-16.236,72.6-36.063,19.532-12.973,42.169-38.374,53.59-93.278l87.557,79.841c-35.972,56.853-67.809,71.378-91.556,72.851-28.325,1.734-49.262-14.9-68.443-3.342-17.811,10.718-21.3,38.046-21.3,60.275Z" transform="translate(74.382 -145.332)" fill="url(#linear-gradient-16)"/>
        <path id="Path_113" data-name="Path 113" d="M2608.582,1085.546c-21.436-29.061,13.6-98.445,55.89-141,77.96-78.436,157.212-42.2,228.409-109.9,19.623-18.672,40.9-47.4,54.451-93.618,7.206-24.586,38.941-31.282,55.708-11.9L3109.427,852.05c-19.125,117.864-59.912,158.629-93.9,173.856-73.723,32.936-146.358-40.176-250.389-9.925-56.547,16.428-95.17,55.448-118.487,84.974C2632.793,1100.274,2617.022,1096.977,2608.582,1085.546Z" transform="translate(95.347 -153)" fill="url(#linear-gradient-17)"/>
        <path id="Path_114" data-name="Path 114" d="M2430.081,792.091c22.512-15.794,58.915-19.261,69.316-3.524,9.483,14.332-4.849,41.048-20.269,55.29-23.339,21.527-64.455,28.7-76.2,13.165C2391.956,842.532,2406.73,808.474,2430.081,792.091Z" transform="translate(68.371 -144.955)" fill="url(#linear-gradient-18)"/>
        <path id="Path_115" data-name="Path 115" d="M2856.292,1063.718c24.846,11.806,45.818,41.728,37.241,58.575-7.806,15.318-38.114,16.02-58.111,9.619-30.273-9.676-56.74-41.92-49.013-59.81C2793.615,1055.414,2830.527,1051.482,2856.292,1063.718Z" transform="translate(119.678 -107.958)" fill="url(#linear-gradient-19)"/>
        <path id="Path_116" data-name="Path 116" d="M1990.32,1124.488c-.193-32.981,20.394-71.548,42.2-71.378,19.839.136,35.768,32.244,39.156,57.125,5.121,37.649-15.137,83.365-37.592,84.69C2013.115,1196.137,1990.524,1158.681,1990.32,1124.488Z" transform="translate(13.993 -108.419)" fill="url(#linear-gradient-20)"/>
        <path id="Path_117" data-name="Path 117" d="M2147.851,882.262c22.512-15.805,58.915-19.261,69.316-3.535,9.483,14.344-4.849,41.048-20.269,55.3-23.34,21.527-64.455,28.7-76.2,13.165C2109.726,932.691,2124.5,898.645,2147.851,882.262Z" transform="translate(30.84 -132.965)" fill="url(#linear-gradient-21)"/>
      </g>
    </g>
  </g>
</svg>
